<?xml version="1.0" encoding="utf-8"?>
<!-- Generator: Adobe Illustrator 16.0.0, SVG Export Plug-In . SVG Version: 6.00 Build 0)  -->
<!DOCTYPE svg PUBLIC "-//W3C//DTD SVG 1.1//EN" "http://www.w3.org/Graphics/SVG/1.1/DTD/svg11.dtd">
<svg version="1.1" id="Layer_1" xmlns="http://www.w3.org/2000/svg" xmlns:xlink="http://www.w3.org/1999/xlink" x="0px" y="0px"
	 width="200px" height="200px" viewBox="0 0 200 200" enable-background="new 0 0 200 200" xml:space="preserve">
<g>
	<defs>
		<rect id="SVGID_1_" width="200" height="200"/>
	</defs>
	<clipPath id="SVGID_2_">
		<use xlink:href="#SVGID_1_"  overflow="visible"/>
	</clipPath>
	<path clip-path="url(#SVGID_2_)" fill="#FFFFFF" d="M168.787,90.397l21.624-18.673l-22.039-36.931l-26.142,9.959l-16.184-9.959
		l-5.395-28.682H78.327l-4.564,28.682l-17.844,9.959L31.852,34.378L9.588,72.969l21.018,18.673l1.245,19.918L9.588,127.744
		l22.263,37.762l26.557-10.789l15.354,11.618l4.564,27.554h44.816l4.563-30.043l14.939-8.714l26.557,8.714l21.209-37.762
		l-21.624-15.769V90.397z M100.319,134.716c-19.495,0-33.93-15.934-34.774-34.774c-0.841-18.779,16.585-34.773,34.774-34.773
		c19.495,0,33.93,15.933,34.774,34.773C135.935,118.722,118.509,134.716,100.319,134.716"/>
	<path clip-path="url(#SVGID_2_)" fill="#FFFFFF" d="M170.556,92.166c7.208-6.224,14.416-12.449,21.624-18.673
		c0.822-0.711,0.928-2.13,0.39-3.03l-22.038-36.931c-0.521-0.875-1.798-1.54-2.823-1.149c-6.455,2.459-12.909,4.918-19.364,7.377
		c-1.614,0.615-3.229,1.23-4.842,1.844c-3.031,1.155-0.604-0.03-0.066,0.955c-0.386-0.709-2.264-1.393-2.959-1.82
		c-1.97-1.213-3.94-2.426-5.911-3.638c-1.725-1.061-3.449-2.123-5.174-3.184c-0.38-0.234-1.159-0.958-1.6-0.984
		c-1.57-0.093,2.29-0.395,0.646,1.088c0.55-0.496-1.396-7.423-1.518-8.065c-1.285-6.836-2.57-13.673-3.856-20.509
		c-0.201-1.065-1.38-1.835-2.411-1.835H78.326c-0.995,0-2.241,0.769-2.41,1.835c-1.408,8.842-3.499,17.82-4.255,26.735
		c-0.016,0.188-0.385,1.567-0.266,1.67c-0.068-0.059,1.664-0.944,0.636-0.955c-1.383-0.015-4.303,2.402-5.482,3.06
		c-3.964,2.212-7.928,4.425-11.892,6.637h2.523c-8.022-3.458-16.045-6.916-24.067-10.374c-1.235-0.532-2.68-0.387-3.421,0.897
		C22.271,45.98,14.852,58.844,7.43,71.708c-0.527,0.914-0.434,2.297,0.391,3.03c6.466,5.745,12.693,12.056,19.528,17.349
		c0.215,0.167,0.927,1.067,1.197,1.064c0.494-0.006-0.175-1.534-0.415-1.102c-0.64,1.154,0.301,4.811,0.384,6.135
		c0.279,4.459,0.557,8.918,0.836,13.377c0.413-0.719,0.825-1.438,1.238-2.159c-7.421,5.396-14.842,10.789-22.262,16.185
		c-1.089,0.791-1.64,2.16-0.897,3.42c7.421,12.587,14.841,25.174,22.262,37.762c0.508,0.86,1.814,1.559,2.824,1.148
		c6.372-2.589,12.744-5.178,19.116-7.767c0.509-0.206,7.415-2.592,7.398-3.005c-1.775-0.532-2.333-0.569-1.675-0.111
		c0.14,0.105,0.279,0.211,0.419,0.316c0.288,0.456,1.2,0.909,1.624,1.23c1.676,1.268,3.352,2.535,5.028,3.805
		c2.365,1.789,5.239,5.044,8.02,6.068c-1.486-0.548-1.225-2.238-0.757,0.588c0.282,1.7,0.564,3.401,0.845,5.103l3.382,20.41
		c0.176,1.065,1.397,1.835,2.41,1.835h44.816c0.989,0,2.248-0.77,2.41-1.835c1.005-6.615,2.01-13.229,3.015-19.843
		c0.311-2.05,2.237-7.633,1.452-9.559c-0.077-0.19,0.517-1.872-0.447,0.107c-0.661,1.355-0.5,0.445,0.348,0.188
		c1.584-0.477,3.393-1.978,4.808-2.804c1.936-1.129,3.872-2.258,5.807-3.387c0.606-0.354,2.972-1.284,3.309-1.931
		c-0.524,1.008-3.101-0.191,0.105,0.86c1.64,0.538,3.278,1.076,4.918,1.614c6.558,2.15,13.114,4.303,19.672,6.455
		c1.028,0.337,2.302-0.222,2.823-1.149c7.069-12.587,14.139-25.174,21.208-37.762c0.712-1.266,0.212-2.611-0.896-3.42
		c-7.208-5.256-14.416-10.512-21.624-15.769l1.237,2.158V90.397c0-3.217-5-3.222-5,0v13.378c0,3.219-0.886,6.798,1.692,9.03
		c6.532,5.654,14.185,10.344,21.17,15.437c-0.299-1.14-0.598-2.279-0.897-3.42c-7.068,12.587-14.139,25.175-21.209,37.762
		c0.942-0.384,1.884-0.767,2.824-1.149c-7.098-2.329-14.194-4.657-21.292-6.986c-2.226-0.729-4.862-2.232-7.191-1.476
		c-3.119,1.014-6.369,3.715-9.18,5.354c-2.079,1.213-5.869,2.537-6.915,4.896c-1.021,2.306-0.891,5.87-1.266,8.334
		c-1.097,7.222-2.195,14.445-3.292,21.667c0.804-0.611,1.607-1.223,2.411-1.835H78.326c0.804,0.612,1.607,1.224,2.411,1.835
		c-1.22-7.363-2.44-14.727-3.66-22.091c-0.405-2.447-0.298-5.145-2.053-6.956c-2.257-2.329-5.5-4.162-8.074-6.11
		c-2.008-1.519-5.296-5.2-7.877-5.761c-2.177-0.473-5.257,1.596-7.144,2.362c-6.914,2.809-13.828,5.617-20.743,8.427
		c0.941,0.383,1.883,0.766,2.824,1.148l-22.263-37.761c-0.299,1.141-0.598,2.28-0.897,3.42c6.161-4.478,12.321-8.956,18.481-13.434
		c1.794-1.304,4.574-2.603,5.02-4.908c0.573-2.963-0.436-6.976-0.622-9.959c-0.197-3.152,0.111-6.869-0.623-9.959
		c-0.553-2.328-2.994-3.777-4.729-5.319c-5.674-5.04-11.347-10.081-17.021-15.122c0.13,1.01,0.261,2.02,0.391,3.03
		c7.421-12.864,14.842-25.728,22.263-38.591c-1.141,0.299-2.281,0.598-3.421,0.897l20.961,9.034c2.037,0.878,3.662,1.983,5.844,1.22
		c3.435-1.2,6.836-3.815,9.999-5.581c2.293-1.279,6.366-2.587,8.137-4.649c1.407-1.64,1.283-5.127,1.602-7.135
		c1.202-7.55,2.403-15.1,3.605-22.65l-2.411,1.835h42.326l-2.411-1.835c1.368,7.272,2.736,14.545,4.104,21.818
		c0.399,2.126,0.354,5.563,1.543,7.461c1.479,2.36,5.893,3.971,8.153,5.362c2.759,1.698,5.84,4.378,8.898,5.476
		c2.242,0.805,4.66-0.761,6.766-1.563c7.11-2.709,14.222-5.418,21.331-8.127c-0.94-0.382-1.882-0.765-2.822-1.148l22.037,36.931
		c0.131-1.01,0.262-2.02,0.392-3.03c-7.208,6.225-14.416,12.449-21.624,18.673C164.58,90.737,168.131,94.26,170.556,92.166"/>
	<path clip-path="url(#SVGID_2_)" fill="#FFFFFF" d="M100.319,132.216c-28.955-0.577-43.433-37.78-20.729-56.767
		c10.308-8.62,25.114-10.343,36.77-3.4c11.038,6.575,17.849,20.292,15.968,33.09C130.071,120.5,115.478,131.885,100.319,132.216
		c-3.213,0.069-3.224,5.069,0,5c15.553-0.341,30.096-10.408,35.407-25.145c5.159-14.315-0.634-31.41-12.109-40.971
		c-26.101-21.745-67.035,3.097-59.583,36.246c3.866,17.194,18.677,29.518,36.285,29.869
		C103.538,137.279,103.538,132.279,100.319,132.216"/>
</g>
</svg>
