<?xml version="1.0" encoding="utf-8"?>
<?xml-stylesheet type="text/scss" href="../app/styles/_svg.scss" ?>
<!DOCTYPE svg PUBLIC "-//W3C//DTD SVG 1.1//EN" "http://www.w3.org/Graphics/SVG/1.1/DTD/svg11.dtd">
<svg id="jamjar-logo" xmlns="http://www.w3.org/2000/svg" xmlns:xlink="http://www.w3.org/1999/xlink" version="1.1" x="0px" y="0px" viewBox="0 0 1000 1000" enable-background="new 0 0 1000 1000" xml:space="preserve">
  <g id="Waves">
    <path id="purple" fill="#683A95" d="M527.219 774.061c0 9.793-12.182 17.718-27.207 17.718l0 0c-15.023 0-27.231-7.925-27.231-17.718V402.386c0-9.791 12.208-17.724 27.231-17.724l0 0c15.025 0 27.207 7.933 27.207 17.724V774.061z"/>
    <path id="blue1" fill="#7A76B4" d="M619.267 677.677c0 12.669-12.084 22.96-26.95 22.96l0 0c-14.864 0-26.951-10.291-26.951-22.96V518.352c0-12.676 12.087-22.939 26.951-22.939l0 0c14.866 0 26.95 10.264 26.95 22.939V677.677z"/>
    <path id="green1" fill="#9ACF95" d="M706.424 626.786c0 11.161-11.145 20.24-24.881 20.24l0 0c-13.736 0-24.881-9.079-24.881-20.24v-67.522c0-11.189 11.145-20.24 24.881-20.24l0 0c13.736 0 24.881 9.051 24.881 20.24V626.786z"/>
    <path id="blue2" fill="#7A76B4" d="M433.972 703.342c0 11.934-11.631 21.605-25.983 21.605l0 0c-14.357 0-25.986-9.672-25.986-21.605V479.216c0-11.926 11.629-21.608 25.986-21.608l0 0c14.352 0 25.983 9.683 25.983 21.608V703.342z"/>
    <path id="green2" fill="#9BD096" d="M347.95 634.875c0 14.169-11.49 25.64-25.668 25.64l0 0c-14.167 0-25.648-11.471-25.648-25.64v-93.311c0-14.168 11.482-25.639 25.648-25.639l0 0c14.178 0 25.668 11.471 25.668 25.639V634.875z"/>
    <path id="yellow1" fill="#FDEB65" d="M259.482 593.979c0 13.421-10.88 24.304-24.303 24.304l0 0c-13.415 0-24.295-10.883-24.295-24.304v-5.396c0-13.442 10.881-24.313 24.295-24.313l0 0c13.423 0 24.303 10.87 24.303 24.313V593.979z"/>
    <path id="yellow2" fill="#FDEB65" d="M790.054 595.72c0 13.429-10.893 24.306-24.305 24.306l0 0c-13.436 0-24.305-10.877-24.305-24.306v-5.395c0-13.42 10.869-24.3 24.305-24.3l0 0c13.412 0 24.305 10.88 24.305 24.3V595.72z"/>
  </g>
  <g id="Jar">
    <g>
      <g>
        <path fill="#FFFFFF" d="M241.696 149.008c-4.077 29.271-4.08 59.449 0.816 88.602 1.659 9.876 4.204 19.625 7.976 28.91 1.981 4.879 4.156 9.635 6.822 14.179 2.926 4.987 6.608 11.34 12.457 12.981 4.297 1.206 8.641 2.254 12.98 3.291 77.685 18.559 158.646 26.401 238.403 25.869 61.949-0.413 124.003-6.758 184.578-19.836 7.718-1.666 15.404-3.479 23.067-5.38 6.276-1.557 10.695-3.929 12.816-10.398 1.396-4.26 2.564-8.597 3.67-12.939 5.473-21.491 8.584-43.687 9.836-65.811 1.055-18.623 0.361-37.329-2.041-55.823 -0.589-4.537-2.013-8.346-6.191-10.793 -3.646-2.137-9.002-2.473-12.617 0 -12.356 8.452-23.328 12.02-37.354 16.306 -22.732 6.947-43.557 9.466-65.835 11.577 -54.085 5.126-108.625 4.833-162.894 4.332 -36.623-0.337-73.304-1.503-109.697-5.84 -32.776-3.905-69.706-11.495-98.431-26.696 -6.023-3.188-13.554-1.574-17.103 4.484 -3.333 5.689-1.532 13.919 4.484 17.103 44.112 23.344 95.875 29.785 144.966 33.302 51.731 3.706 104.013 3.448 155.84 2.498 39.839-0.73 79.858-2.539 119.274-8.689 18.38-2.868 36.479-7.259 53.772-14.186 8.712-3.489 17.797-7.271 25.593-12.604 -6.27-3.598-12.539-7.196-18.809-10.793 2.117 16.301 2.838 32.702 2.334 49.129 -0.433 14.121-1.825 27.588-3.93 40.368 -2.163 13.138-4.877 26.499-9.208 39.125 2.91-2.91 5.82-5.82 8.73-8.73 -110.12 27.944-225.6 31.221-338.088 17.656 -4.215-0.508-8.427-1.05-12.636-1.609 1.274 0.171 1.157 0.154-0.351-0.05 -1.207-0.165-2.413-0.334-3.619-0.503 -1.97-0.276-3.938-0.561-5.906-0.848 -7.349-1.073-14.684-2.238-22.006-3.473 -12.143-2.048-24.245-4.338-36.293-6.88 -10.281-2.169-20.593-4.423-30.713-7.269 1.838 1.072 3.677 2.144 5.516 3.215 1.697 2.182-0.977-1.492-1.245-1.89 -0.826-1.227-1.583-2.499-2.332-3.773 -0.76-1.295-1.453-2.629-2.138-3.965 -0.342-0.679-0.675-1.361-0.999-2.048 -0.101-0.211-1.626-3.674-0.601-1.231 -2.615-6.229-4.504-12.751-6.053-19.317 -0.749-3.175-1.361-6.38-1.922-9.593 -0.282-1.612-0.527-3.23-0.767-4.849 -0.213-1.513-0.229-1.62-0.049-0.322 -0.158-1.213-0.295-2.428-0.432-3.644 -0.802-7.102-1.219-14.246-1.428-21.388 -0.327-11.167 0.011-22.356 0.822-33.496 0.255-3.498 0.573-6.991 0.949-10.478 0.191-1.77 0.999-7.671 0.089-1.132 0.939-6.744-1.528-13.396-8.73-15.377C251.159 138.651 242.638 142.247 241.696 149.008z"/>
      </g>
    </g>
    <g>
      <path fill="#FFFFFF" d="M703.901 872.761c0 19.311-91.291 34.985-203.917 34.985 -112.597 0-203.887-15.675-203.887-34.985 0-19.332 91.291-35.007 203.887-35.007C612.61 837.754 703.901 853.429 703.901 872.761z"/>
      <g>
        <path fill="#FFFFFF" d="M701.401 872.761c-0.091 3.299-3.719 5.677-6.212 7.241 -5.405 3.391-11.614 5.481-17.669 7.364 -19.821 6.16-40.712 9.16-61.262 11.636 -59.542 7.174-120.181 7.825-180.008 4.5 -26.255-1.46-52.528-3.861-78.476-8.198 -16.443-2.748-33.926-5.841-49.06-13.165 -6.177-2.988-14.068-8.188-6.895-14.506 4.09-3.603 9.71-5.698 14.75-7.53 7.855-2.857 16.019-4.867 24.174-6.65 23.494-5.139 47.533-7.811 71.472-9.797 30.486-2.53 61.104-3.47 91.688-3.396 53.082 0.129 107.854 2.186 159.773 14.188 9.376 2.168 18.911 4.714 27.604 8.924C694.749 865.05 701.275 868.165 701.401 872.761c0.088 3.218 5.089 3.227 5 0 -0.253-9.224-12.247-13.85-19.329-16.618 -17.229-6.735-36.06-9.767-54.268-12.453 -57.664-8.509-116.665-9.735-174.833-7.691 -27.755 0.976-55.514 2.971-83.053 6.614 -19.251 2.548-38.751 5.685-57.231 11.819 -8.003 2.656-20.991 6.79-23.771 15.988 -2.628 8.698 8.638 14.468 14.851 17.23 15.769 7.013 33.381 10.132 50.298 12.909 25.527 4.191 51.372 6.462 77.185 7.942 59.839 3.431 120.451 2.54 180.008-4.5 22.178-2.621 44.785-5.871 66.052-12.926 8.035-2.665 23.798-7.646 24.091-18.315C706.49 869.534 701.49 869.543 701.401 872.761z"/>
      </g>
    </g>
    <g>
      <g>
        <path fill="#FFFFFF" d="M728.078 149.753c-0.06 2.292 0.983-3.935 0.064-1.234 1.465-4.304 1.004-2.164 0.129-0.928 2.729-3.855 1.09-1.427 0.094-0.505 -2.491 2.311 2.588-1.708-0.463 0.315 -1.944 1.288-4.047 2.332-6.162 3.304 -0.761 0.351-3.068 1.299 0.502-0.188 -0.662 0.276-1.331 0.535-2 0.794 -1.688 0.655-3.399 1.246-5.116 1.819 -17.142 5.725-35.267 8.699-53.098 11.309 -53.401 7.817-112.974 9.901-168.818 9.8 -30.854-0.056-61.714-1.013-92.505-3.013 -24.771-1.609-50.788-4.071-73.628-7.568 -17.126-2.623-34.504-5.741-50.875-11.561 -1.385-0.492-2.755-1.026-4.117-1.58 3.961 1.61-0.312-0.185-1.222-0.626 -1.049-0.509-2.073-1.068-3.083-1.652 -1.056-0.611-4.689-3.302-0.803-0.296 -0.677-0.524-1.305-1.107-1.901-1.72 -1.789-1.84 1.953 3.062 0.404 0.49 -1.223-2.029 1.09 3.646 0.448 0.914 0.929 3.947 0.354 3.383 0.321 2.126 -0.059-2.263-0.648 3.512-0.251 1.828 0.518-2.2-1.854 3.43-0.341 0.918 1.231-2.043-2.527 2.785-0.3 0.495 0.813-0.835 3.581-2.823-0.161-0.044 0.974-0.723 2.016-1.354 3.064-1.96 1.029-0.596 2.095-1.128 3.164-1.647 0.583-0.282 1.173-0.546 1.764-0.811 2.316-1.039-2.876 1.178-0.449 0.191 3.16-1.284 6.403-2.358 9.661-3.363 17.938-5.535 36.717-8.493 55.271-11.051 -2.167 0.299 2.392-0.312 2.198-0.287 1.411-0.183 2.824-0.358 4.236-0.533 2.901-0.36 5.805-0.695 8.71-1.023 6.627-0.749 13.264-1.404 19.905-2.01 13.927-1.272 27.882-2.234 41.845-3.009 31.425-1.744 62.914-2.351 94.384-2.142 29.377 0.195 58.755 1.218 88.065 3.204 12.857 0.871 25.699 1.971 38.516 3.308 11.743 1.226 20.984 2.389 31.718 4.032 16.633 2.547 33.438 5.601 49.402 11.042 1.436 0.489 2.856 1.019 4.271 1.568 0.777 0.302 3.213 1.344-0.396-0.195 0.605 0.259 1.205 0.534 1.803 0.809 2.078 0.956 4.091 2.051 5.998 3.314 2.404 1.594-2.521-2.228 0.039 0.034 0.941 0.832 2.879 3.403-0.094-0.505 0.816 1.072 1.666 3.644-0.129-0.928C729.176 153.618 728.02 147.5 728.078 149.753c0.421 16.09 25.422 16.131 25 0 -0.357-13.66-13.181-20.29-24.189-24.873 -15.006-6.247-31.517-9.214-47.456-11.924 -54.257-9.227-109.752-11.879-164.699-12.578 -58.499-0.743-117.374 1.15-175.461 8.463 -20.263 2.551-40.615 5.566-60.354 10.918 -11.461 3.107-25.452 7.07-33.785 16.135 -4.808 5.231-6.586 11.418-5.312 18.378 1.104 6.031 6.127 10.431 10.757 13.87 10.534 7.823 25.357 11.084 37.889 13.997 48.598 11.296 99.604 14.214 149.301 16.071 61.087 2.283 122.521 1.26 183.414-4.303 23.434-2.141 46.892-4.989 69.998-9.497 14.957-2.918 30.335-6.477 43.983-13.48 8.275-4.246 15.656-11.326 15.914-21.178C753.5 133.622 728.499 133.663 728.078 149.753z"/>
      </g>
    </g>
    <g>
      <g>
        <path fill="#FFFFFF" d="M265.55 269.584c-23.396 17.412-45.638 36.675-66.336 57.203 -15.792 15.662-30.835 32.519-42.899 51.261 -3.526 5.478-8.549 12.379-8.549 19.047 0 2.346 0 4.692 0 7.038 0 56.193 0 112.387 0 168.58 0 8.815 0 17.631 0 26.446 0 16.122 25 16.122 25 0 0-49.09 0-98.18 0-147.27 0-18.522 0-37.044 0-55.567 -0.569 2.103-1.138 4.206-1.707 6.309 3.367-6.65 7.326-12.948 11.609-19.042 4.597-6.54 8.94-11.817 14.947-18.694 11.561-13.233 24.158-25.556 37.13-37.395 10.235-9.342 20.792-18.333 31.571-27.039 1.931-1.56 3.873-3.105 5.821-4.643 1.079-0.851 6.414-4.983 2.313-1.821 1.233-0.951 2.469-1.899 3.718-2.829 5.454-4.059 8.216-10.731 4.484-17.103C279.496 268.68 271.03 265.507 265.55 269.584L265.55 269.584z"/>
      </g>
    </g>
    <g>
      <g>
        <path fill="#FFFFFF" d="M723.02 295.39c1.084 0.803 2.155 1.624 3.227 2.444 2.215 1.698-2.289-1.774-0.593-0.459 0.78 0.605 1.558 1.213 2.334 1.823 1.924 1.509 3.834 3.035 5.739 4.568 10.296 8.291 20.32 16.92 30.071 25.845 12.226 11.19 23.961 22.939 34.863 35.428 10.07 11.536 18.841 23.103 26.179 37.593 -0.569-2.103-1.139-4.206-1.707-6.309 0 49.09 0 98.18 0 147.271 0 18.521 0 37.044 0 55.566 0 16.122 25 16.122 25 0 0-49.09 0-98.18 0-147.27 0-18.468 0-36.937 0-55.405 0-4.285-2.487-8.107-4.506-11.741 -2.646-4.764-5.634-9.335-8.744-13.807 -6.75-9.705-14.301-18.881-22.178-27.688 -14.324-16.014-30.085-30.745-46.369-44.74 -9.952-8.553-20.151-16.894-30.699-24.707 -5.487-4.065-13.939-0.915-17.102 4.484C714.809 284.648 717.556 291.343 723.02 295.39L723.02 295.39z"/>
      </g>
    </g>
  </g>
</svg>
