<svg xmlns="http://www.w3.org/2000/svg" xmlns:xlink="http://www.w3.org/1999/xlink" version="1.1" x="0" y="0" viewBox="0 0 1000 386.79" enable-background="new 0 0 1000 386.793" xml:space="preserve">
  <g id="logoType">
    <path fill="#FFFFFF" d="M89.75 119.06c1.97 46.53 3.2 93.12 3.48 139.69 0.17 28.64 0.4 57.5-2.15 86.05 -0.21 2.31-0.45 4.62-0.74 6.93 -0.27 2.22 0.22-1.37-0.2 1.39 -0.16 1.06-0.34 2.11-0.53 3.16 -0.28 1.5-0.61 2.99-1.02 4.46 -0.17 0.59-0.36 1.17-0.56 1.75 -0.57 1.57 1.1-2.13 0.01-0.14 -0.88 1.6 1.42-1.56 0.5-0.58 -0.32 0.34 1.49-1 1.94-1.18 -2.46 1-5.09 1.59-7.7 2.06 -0.25 0.05-2.57 0.37-0.67 0.13 -0.74 0.1-1.49 0.17-2.23 0.24 -1.57 0.15-3.14 0.21-4.72 0.25 -2.98 0.07-8.15-0.26-9.72-0.48 -14.37-2.05-28.11-8.81-33.88-22.87 -3.35-8.18-3.95-17.18-3.04-25.89 0.6-5.76 2.98-12.13 6.46-17.59 3.25-5.09 8.53-9.82 13.99-13.34 7.03-4.53 14.67-7.48 22.66-9.82 21.93-6.42 45.3-7.2 68-6.72 30.84 0.66 61.69 2.92 92.52 4.04 28.86 1.05 57.8 2.92 86.68 3.08 19.1 0.11 43.06-0.69 51.35-21.06 6.23-15.3 6.54-33.48 7.5-49.74 1.03-17.47 1.36-35.03 3.48-52.42 0.63-5.21 1.94-12.24 3.98-17.91 0.1-0.27 1.01-2.39 0.21-0.59 0.26-0.58 0.55-1.15 0.85-1.71 0.32-0.61 2.43-3.49 0.96-1.69 0.33-0.4 0.7-0.77 1.07-1.13 1.27-1.24-1.52 1.02-0.09 0.06 1.59-1.07-1.39 0.15 1.12-0.44 -1.7 0.19-1.6 0.2 0.31 0.02 1.43-0.12 2.87-0.08 4.31-0.04 2.31 0.06 4.51 0.62 6.7 1.29 3.63 1.1 6.85 3.36 9.6 5.92 4.75 4.43 7.65 9.97 10.73 16.01 3.72 7.29 7.27 15.17 12.52 21.51 3.7 4.46 7.4 8.93 11.1 13.39 2.67 3.22 8.78 3.14 11.47 0 8.44-9.85 16.75-19.8 24.93-29.86 5.55-6.82 11.05-13.69 16.23-20.8 3.42-4.7 7.34-12.2 14.09-11.28 3.86 0.52 6.15 3.22 7.76 6.62 -1.34-2.83-0.25-0.45-0.01 0.35 0.3 1.03 0.53 2.08 0.75 3.13 0.23 1.09 0.42 2.19 0.6 3.29 0.1 0.59 0.63 4.29 0.37 2.33 0.44 3.3 0.78 6.62 1.09 9.93 1.56 16.5 2.24 33.1 2.84 49.66 0.8 21.95 1.27 43.93 1.42 65.9 0.07 10.45 16.29 10.46 16.22 0 -0.16-23.74-0.7-47.49-1.62-71.21 -0.62-16.14-1.37-32.32-3.04-48.39 -1.39-13.32-2.62-28.07-16.03-35.11 -11.1-5.83-24.86-1.32-32.45 8.05 -5.28 6.52-9.62 13.53-14.76 19.97 -9.7 12.19-19.72 24.14-29.85 35.98 3.82 0 7.65 0 11.47 0 -3.82-4.61-7.65-9.22-11.47-13.83 -1.75-2.11 0.29 0.42 0.14 0.17 -0.9-1.58-1.79-3.16-2.67-4.75 -2.99-5.37-5.85-10.82-8.66-16.29 -8.95-17.42-24.92-29.67-45.27-27.98 -14.49 1.2-19.32 16.84-21.57 28.94 -3.35 18.03-3.66 36.61-4.59 54.88 -0.86 16.88-1.17 33.84-6.09 49.91 -0.21 0.68-1.58 4.33-1.01 3.02 -0.68 1.58-1.34 2.59-1.82 3.13 -1.96 2.18-5.23 3.45-8.75 4.42 -10.65 2.95-22.39 2.34-33.32 2.08 -29.35-0.68-58.72-2.22-88.06-3.31 -30.41-1.13-60.89-3.66-91.31-3.8 -37.03-0.18-85.06 3.49-109.13 35.95 -10.16 13.7-11.94 31.7-9.26 48.07 3.05 18.62 16 33.15 33.19 40.14 13.51 5.49 29.19 6.54 43.4 3.38 4.79-1.06 9.29-2.67 12.11-6.87 1.67-2.48 2.47-5.77 3.1-8.67 2.15-9.9 2.72-20.25 3.29-30.34 0.8-14.23 1.06-28.49 1.2-42.74 0.52-55.04-1.07-110.12-3.25-165.12 -0.06-1.65-0.13-3.3-0.2-4.95C105.52 108.65 89.31 108.6 89.75 119.06L89.75 119.06z"/>
    <path fill="#FFFFFF" d="M300.44 265.54c-0.13-23.83-0.27-47.66-0.4-71.49 -0.07-12.49-0.14-24.98-0.21-37.48 -0.02-3.12 0.05-5.64-1.2-8.6 -1.61-3.82-3.65-7.46-5.85-10.96 -8.88-14.1-22.97-26.95-40.71-25.97 -9.28 0.51-17.74 5.13-25.85 9.29 -6.45 3.31-12.48 7.19-18.09 11.79 -13.06 10.71-20.68 26.32-26.67 41.75 -4.63 11.93-8.24 24.3-11.49 36.67 -2.46 9.37-3.37 19.05-1.66 28.61 4.95 27.58 36.26 32.18 59.31 29.98 7.04-0.67 13.5-1.16 19.53-5.2 18.44-12.35 32.76-31.36 44.71-49.7 5.73-8.79-8.32-16.91-14-8.18 -7.38 11.32-15.55 22.01-24.98 31.7 -5.47 5.62-10.4 10.23-16.42 13.76 -1.7 1-1.45 0.73-0.62 0.42 -1.64 0.61 2.25-0.09 0.92-0.09 -0.93 0.01-1.89 0.21-2.81 0.33 -3.95 0.52-7.91 0.95-11.9 1.17 -2.54 0.14-5.08 0.17-7.62 0.13 -1.35-0.02-2.69-0.1-4.04-0.18 -0.68-0.04-1.37-0.11-2.05-0.17 -0.36-0.03-3.32-0.43-1.27-0.13 -2.74-0.39-5.45-1.01-8.1-1.82 -3.35-1.02-3.27-0.98-6.71-3.11 -0.57-0.35-1.12-0.75-1.66-1.14 1.52 1.09-0.23-0.24-0.44-0.43 -1.02-0.9-1.94-1.91-2.81-2.96 0.98 1.18-1.1-1.87-1.44-2.49 -0.08-0.15-1.05-2.33-0.42-0.77 -0.39-0.97-0.69-1.97-0.98-2.98 -0.94-3.27-1.02-5.49-0.93-9.52 0.11-4.83 1.15-9.54 2.37-14.19 5.29-20.14 11.22-41.57 23.26-58.89 7.29-10.48 18.2-17.04 30.82-23.11 7.5-3.61 13.83-5.59 21.38-2.89 5.34 1.91 11.4 8.16 14.61 12.5 3.16 4.27 5.84 8.94 8.06 13.76 1.35 2.94-0.48-2.78-0.48-2.38 0.01 1.09 0.01 2.17 0.02 3.25 0.21 36.59 0.41 73.18 0.61 109.77C284.28 275.99 300.5 276 300.44 265.54L300.44 265.54z"/>
    <path fill="#FFFFFF" d="M115.97 44.91c-0.25 9.37-7.44 16.53-16.8 16.78 -9.36 0.25-16.55-7.8-16.79-16.78 -0.25-9.37 7.8-16.56 16.79-16.8C108.54 27.86 115.72 35.91 115.97 44.91c0.28 10.44 16.5 10.46 16.22 0 -0.49-18.32-14.7-32.52-33.02-33.02 -18.31-0.49-32.53 15.45-33.01 33.02 -0.49 18.3 15.45 32.53 33.01 33 18.3 0.49 32.54-15.43 33.02-33C132.47 34.45 116.25 34.48 115.97 44.91z"/>
    <path fill="#FFFFFF" d="M636.23 115.68c1.24 46.54 1.75 93.13 1.32 139.69 -0.26 28.65-0.48 57.53-3.45 86.05 -0.12 1.2-0.26 2.4-0.4 3.59 -0.07 0.57-0.14 1.13-0.21 1.7 -0.25 1.95 0.26-1.89 0 0.01 -0.29 2.07-0.63 4.13-1.04 6.18 -0.3 1.5-0.65 2.99-1.08 4.46 -0.17 0.59-0.37 1.17-0.59 1.75 -0.01 0.02 0.99-1.93-0.01-0.13 -0.89 1.6 1.41-1.56 0.49-0.58 -0.33 0.35 1.49-1 1.93-1.18 -2.46 1-5.09 1.59-7.7 2.06 -0.25 0.05-2.57 0.37-0.67 0.13 -0.74 0.1-1.49 0.17-2.23 0.23 -1.57 0.15-3.14 0.21-4.72 0.25 -2.98 0.07-8.15-0.26-9.72-0.48 -14.37-2.05-28.11-8.81-33.87-22.86 -3.35-8.18-3.94-17.18-3.04-25.9 0.6-5.76 2.97-12.12 6.45-17.58 3.25-5.09 8.52-9.82 13.98-13.34 7.03-4.53 14.67-7.48 22.66-9.81 21.93-6.42 45.3-7.2 67.99-6.73 30.84 0.65 61.69 2.91 92.52 4.03 28.86 1.05 57.81 2.93 86.7 3.08 18.93 0.1 43.25-0.65 51.32-21.05 6.01-15.18 4.79-33.77 4.26-49.74 -0.46-13.7-1.44-27.38-1.84-41.08 -0.17-5.98-0.2-11.97 0.11-17.95 0.28-5.54 0.41-7.84 2.06-13.22 0.13-0.43 1.19-2.99 0.27-0.91 0.37-0.83 0.83-1.62 1.33-2.38 0.78-1.2-1.24 1.3 0.32-0.24 0.64-0.56 0.46-0.43-0.56 0.39 0.37-0.27 0.78-0.47 1.19-0.68 -2.72 1.35 1.67 0-1.39 0.38 2.33-0.29 4.68-0.47 7.02-0.7 4.44-0.44 8.88-0.85 13.32-1.23 8.45-0.71 16.93-1.26 25.41-1.2 2.86 0.02 6.46 0.17 8.62 0.51 1.32 0.21 2.61 0.55 3.87 0.97 -0.84-0.28-0.61 0.03-1.36-1.21 5.38 8.95 19.4 0.8 14-8.18 -4.51-7.51-14.93-7.95-22.71-8.26 -11.75-0.45-23.61 0.73-35.3 1.81 -8.15 0.76-17.67 0.08-23.92 6.25 -4.34 4.29-6.19 10.71-7.17 16.55 -5.77 34.38 4.67 71.45-0.39 104.77 -0.5 3.27-1.24 6.5-2.27 9.64 -0.8 2.44-1.56 3.91-3.72 5.39 -7.04 4.8-17.88 4.88-26.46 5.11 -28.35 0.75-57-1.74-85.34-2.76 -31.09-1.12-62.15-2.83-93.24-4.09 -24.07-0.97-48.62-0.1-72.17 5.33 -16.82 3.88-33.82 10.92-46.06 23.46 -11.27 11.54-16.33 27.2-16.08 43.14 0.31 19.56 8.94 37.48 25.85 47.79 12.9 7.86 29.44 10.48 44.31 8.74 5.98-0.7 12.67-1.67 17.56-5.45 2.4-1.86 3.66-5.41 4.53-8.18 2.73-8.62 3.27-18.14 4.04-27.09 2.55-29.75 2.74-59.75 2.91-89.6 0.26-43.2-0.24-86.43-1.39-129.62C652.16 105.25 635.95 105.22 636.23 115.68L636.23 115.68z"/>
    <path fill="#FFFFFF" d="M658.68 41.51c-0.25 9.37-7.43 16.55-16.8 16.8 -9.38 0.25-16.54-7.8-16.78-16.8 -0.25-9.37 7.79-16.54 16.78-16.78C651.25 24.47 658.43 32.52 658.68 41.51c0.28 10.44 16.5 10.46 16.22 0C674.4 23.2 660.18 9 641.88 8.51c-18.3-0.49-32.53 15.43-33 33 -0.49 18.31 15.43 32.54 33 33.02 18.31 0.49 32.54-15.45 33.02-33.02C675.18 31.04 658.96 31.07 658.68 41.51z"/>
    <path fill="#FFFFFF" d="M839.14 259.02c-0.13-23.83-0.27-47.67-0.4-71.5 -0.07-12.49-0.14-24.99-0.21-37.48 -0.02-3.12 0.05-5.64-1.2-8.6 -1.61-3.82-3.65-7.46-5.85-10.96 -8.88-14.1-22.97-26.95-40.72-25.97 -9.28 0.51-17.74 5.13-25.85 9.3 -6.45 3.31-12.48 7.2-18.09 11.8 -13.06 10.71-20.68 26.32-26.67 41.74 -4.64 11.93-8.25 24.3-11.49 36.67 -2.46 9.37-3.37 19.05-1.65 28.62 4.95 27.58 36.27 32.18 59.31 29.97 7.04-0.67 13.5-1.16 19.53-5.2 18.44-12.35 32.77-31.37 44.71-49.71 5.73-8.79-8.32-16.91-14-8.18 -7.38 11.33-15.55 22.02-24.98 31.71 -5.47 5.62-10.4 10.22-16.42 13.76 -1.7 1-1.45 0.73-0.61 0.42 -1.63 0.61 2.25-0.09 0.92-0.09 -0.93 0.01-1.89 0.21-2.81 0.33 -3.95 0.52-7.91 0.95-11.9 1.17 -2.54 0.14-5.08 0.18-7.62 0.13 -1.35-0.02-2.69-0.09-4.04-0.18 -0.68-0.04-1.37-0.11-2.05-0.17 -0.36-0.03-3.32-0.42-1.27-0.13 -2.74-0.39-5.45-1.01-8.1-1.82 -3.35-1.02-3.27-0.98-6.71-3.11 -0.57-0.35-1.12-0.75-1.66-1.14 1.52 1.09-0.23-0.24-0.45-0.43 -1.02-0.9-1.94-1.91-2.81-2.96 0.98 1.18-1.1-1.87-1.44-2.49 -0.08-0.15-1.05-2.33-0.42-0.77 -0.39-0.97-0.69-1.97-0.98-2.98 -0.94-3.27-1.02-5.49-0.93-9.52 0.11-4.83 1.14-9.54 2.36-14.2 5.28-20.14 11.22-41.57 23.26-58.89 7.29-10.48 18.21-17.04 30.82-23.11 7.5-3.61 13.82-5.6 21.38-2.9 5.34 1.91 11.4 8.16 14.61 12.5 3.16 4.27 5.85 8.94 8.06 13.76 1.35 2.94-0.48-2.78-0.48-2.38 0.01 1.09 0.01 2.17 0.02 3.25 0.21 36.59 0.41 73.18 0.62 109.78C822.98 269.47 839.2 269.48 839.14 259.02L839.14 259.02z"/>
  </g>
</svg>
