<?xml version="1.0" encoding="utf-8"?>
<!-- Generator: Adobe Illustrator 16.0.0, SVG Export Plug-In . SVG Version: 6.00 Build 0)  -->
<!DOCTYPE svg PUBLIC "-//W3C//DTD SVG 1.1//EN" "http://www.w3.org/Graphics/SVG/1.1/DTD/svg11.dtd">
<svg version="1.1" xmlns="http://www.w3.org/2000/svg" xmlns:xlink="http://www.w3.org/1999/xlink" x="0px" y="0px" width="1000px"
	 height="386.793px" viewBox="0 0 1000 386.793" enable-background="new 0 0 1000 386.793" xml:space="preserve">
<g id="bg" display="none">
	<rect x="-17.035" y="-307.277" display="inline" fill="#F15F4E" width="1035" height="1032"/>
</g>
<g id="logoType">
	<g>
		<g>
			<path fill="#FFFFFF" d="M89.748,119.062c1.97,46.529,3.197,93.119,3.48,139.688c0.174,28.636,0.404,57.501-2.152,86.051
				c-0.207,2.313-0.452,4.622-0.736,6.926c-0.272,2.218,0.215-1.368-0.198,1.393c-0.158,1.057-0.339,2.11-0.533,3.16
				c-0.277,1.5-0.611,2.989-1.022,4.458c-0.166,0.589-0.357,1.171-0.565,1.747c-0.566,1.568,1.101-2.129,0.006-0.136
				c-0.877,1.598,1.417-1.565,0.502-0.582c-0.318,0.342,1.492-1.001,1.935-1.181c-2.462,1.001-5.091,1.591-7.699,2.062
				c-0.252,0.045-2.566,0.373-0.672,0.128c-0.743,0.097-1.49,0.166-2.235,0.235c-1.569,0.146-3.145,0.209-4.719,0.246
				c-2.981,0.071-8.148-0.256-9.725-0.481c-14.374-2.054-28.112-8.815-33.876-22.871c-3.354-8.178-3.948-17.18-3.044-25.894
				c0.598-5.761,2.978-12.126,6.46-17.586c3.25-5.094,8.525-9.821,13.988-13.342c7.026-4.528,14.673-7.48,22.659-9.818
				c21.931-6.422,45.304-7.205,67.998-6.723c30.837,0.656,61.692,2.919,92.524,4.039c28.858,1.049,57.8,2.92,86.676,3.083
				c19.096,0.107,43.062-0.692,51.35-21.059c6.226-15.297,6.54-33.48,7.5-49.739c1.033-17.474,1.362-35.031,3.477-52.423
				c0.634-5.21,1.943-12.236,3.98-17.915c0.096-0.267,1.012-2.392,0.214-0.587c0.257-0.582,0.551-1.146,0.846-1.71
				c0.319-0.61,2.434-3.49,0.963-1.693c0.33-0.403,0.702-0.768,1.074-1.13c1.273-1.238-1.525,1.024-0.091,0.057
				c1.592-1.075-1.394,0.153,1.117-0.438c-1.701,0.189-1.598,0.195,0.308,0.019c1.434-0.119,2.873-0.084,4.308-0.045
				c2.305,0.062,4.506,0.622,6.704,1.285c3.634,1.096,6.849,3.362,9.596,5.924c4.754,4.434,7.651,9.968,10.731,16.008
				c3.716,7.287,7.265,15.173,12.517,21.506c3.7,4.462,7.401,8.925,11.102,13.387c2.672,3.223,8.779,3.139,11.467,0
				c8.435-9.85,16.75-19.805,24.932-29.865c5.547-6.819,11.054-13.693,16.225-20.803c3.422-4.704,7.343-12.197,14.093-11.28
				c3.861,0.524,6.154,3.222,7.755,6.615c-1.338-2.835-0.246-0.451-0.01,0.351c0.303,1.028,0.532,2.077,0.753,3.125
				c0.229,1.091,0.42,2.19,0.604,3.29c0.099,0.59,0.63,4.293,0.367,2.329c0.44,3.301,0.779,6.616,1.092,9.931
				c1.557,16.504,2.241,33.097,2.84,49.659c0.795,21.953,1.272,43.928,1.422,65.895c0.071,10.454,16.288,10.461,16.217,0
				c-0.161-23.739-0.703-47.486-1.62-71.208c-0.624-16.142-1.368-32.317-3.042-48.39c-1.387-13.318-2.619-28.074-16.034-35.115
				c-11.104-5.828-24.863-1.319-32.448,8.052c-5.279,6.521-9.625,13.527-14.757,19.973c-9.705,12.189-19.721,24.142-29.854,35.977
				c3.822,0,7.645,0,11.467,0c-3.824-4.612-7.648-9.223-11.472-13.835c-1.75-2.11,0.287,0.424,0.142,0.17
				c-0.901-1.577-1.788-3.163-2.672-4.75c-2.995-5.375-5.847-10.822-8.66-16.294c-8.953-17.418-24.922-29.667-45.27-27.98
				c-14.494,1.202-19.317,16.836-21.568,28.935c-3.355,18.034-3.657,36.611-4.589,54.881c-0.862,16.879-1.168,33.842-6.087,49.907
				c-0.209,0.684-1.578,4.334-1.015,3.018c-0.677,1.583-1.336,2.588-1.824,3.131c-1.956,2.179-5.231,3.448-8.748,4.42
				c-10.652,2.945-22.39,2.337-33.318,2.084c-29.353-0.679-58.719-2.219-88.061-3.307c-30.406-1.127-60.886-3.658-91.309-3.804
				c-37.034-0.177-85.064,3.485-109.134,35.95c-10.156,13.698-11.938,31.704-9.255,48.072c3.053,18.622,16.003,33.15,33.188,40.136
				c13.506,5.49,29.189,6.538,43.397,3.379c4.793-1.065,9.293-2.667,12.109-6.869c1.665-2.484,2.473-5.774,3.104-8.672
				c2.155-9.903,2.723-20.247,3.292-30.34c0.802-14.23,1.063-28.492,1.198-42.743c0.522-55.036-1.074-110.125-3.246-165.116
				c-0.065-1.651-0.131-3.303-0.201-4.954C105.523,108.645,89.305,108.602,89.748,119.062L89.748,119.062z"/>
		</g>
	</g>
	<g>
		<g>
			<path fill="#FFFFFF" d="M300.441,265.538c-0.133-23.832-0.266-47.663-0.399-71.495c-0.069-12.492-0.139-24.985-0.209-37.477
				c-0.018-3.125,0.05-5.638-1.201-8.596c-1.614-3.816-3.646-7.461-5.851-10.963c-8.882-14.105-22.967-26.95-40.713-25.974
				c-9.281,0.51-17.739,5.125-25.85,9.29c-6.45,3.312-12.479,7.193-18.087,11.794c-13.06,10.714-20.679,26.321-26.673,41.749
				c-4.635,11.928-8.245,24.3-11.49,36.668c-2.458,9.369-3.373,19.05-1.657,28.612c4.949,27.576,36.263,32.179,59.305,29.978
				c7.037-0.672,13.499-1.161,19.534-5.204c18.438-12.353,32.758-31.361,44.709-49.696c5.729-8.79-8.317-16.908-14.003-8.185
				c-7.379,11.321-15.549,22.008-24.981,31.7c-5.469,5.619-10.401,10.225-16.417,13.763c-1.7,1-1.447,0.729-0.616,0.42
				c-1.636,0.607,2.251-0.093,0.917-0.086c-0.935,0.006-1.892,0.206-2.815,0.328c-3.954,0.523-7.915,0.945-11.897,1.166
				c-2.537,0.14-5.079,0.174-7.62,0.126c-1.348-0.024-2.695-0.096-4.04-0.185c-0.684-0.045-1.366-0.108-2.049-0.172
				c-0.365-0.034-3.316-0.426-1.274-0.132c-2.743-0.395-5.449-1.015-8.098-1.825c-3.354-1.025-3.268-0.979-6.706-3.111
				c-0.572-0.354-1.119-0.747-1.665-1.14c1.521,1.094-0.232-0.245-0.445-0.433c-1.024-0.9-1.939-1.915-2.807-2.964
				c0.976,1.18-1.103-1.873-1.438-2.491c-0.08-0.147-1.051-2.335-0.416-0.772c-0.394-0.969-0.693-1.974-0.981-2.979
				c-0.936-3.267-1.019-5.487-0.926-9.521c0.111-4.828,1.146-9.538,2.367-14.194c5.286-20.144,11.223-41.575,23.26-58.89
				c7.288-10.483,18.204-17.041,30.823-23.114c7.504-3.612,13.826-5.591,21.377-2.889c5.337,1.909,11.396,8.156,14.607,12.497
				c3.16,4.27,5.843,8.936,8.06,13.76c1.351,2.94-0.485-2.776-0.483-2.381c0.006,1.085,0.012,2.169,0.018,3.254
				c0.205,36.589,0.409,73.177,0.613,109.766C284.283,275.993,300.5,275.998,300.441,265.538L300.441,265.538z"/>
		</g>
	</g>
	<g>
		<g>
			<path fill="#FFFFFF" d="M115.966,44.911c-0.253,9.369-7.437,16.53-16.8,16.783c-9.36,0.252-16.548-7.798-16.791-16.783
				c-0.253-9.371,7.796-16.557,16.791-16.8C108.541,27.858,115.723,35.914,115.966,44.911c0.281,10.437,16.499,10.464,16.217,0
				c-0.494-18.316-14.701-32.523-33.017-33.017c-18.308-0.494-32.534,15.45-33.008,33.017c-0.493,18.298,15.451,32.526,33.008,33
				c18.298,0.494,32.543-15.435,33.017-33C132.465,34.447,116.248,34.475,115.966,44.911z"/>
		</g>
	</g>
	<g>
		<g>
			<path fill="#FFFFFF" d="M636.226,115.683c1.244,46.541,1.749,93.13,1.317,139.685c-0.265,28.65-0.48,57.527-3.451,86.052
				c-0.125,1.198-0.262,2.396-0.404,3.592c-0.067,0.567-0.14,1.134-0.213,1.7c-0.249,1.949,0.263-1.886-0.004,0.009
				c-0.291,2.068-0.633,4.13-1.04,6.179c-0.299,1.501-0.652,2.99-1.083,4.458c-0.174,0.59-0.373,1.172-0.588,1.747
				c-0.008,0.021,0.992-1.933-0.015-0.135c-0.895,1.596,1.414-1.563,0.492-0.581c-0.327,0.348,1.492-1.003,1.933-1.182
				c-2.463,0.999-5.091,1.587-7.697,2.057c-0.253,0.046-2.566,0.372-0.672,0.128c-0.743,0.096-1.489,0.165-2.235,0.234
				c-1.568,0.146-3.144,0.208-4.719,0.245c-2.981,0.071-8.147-0.256-9.724-0.481c-14.372-2.054-28.109-8.81-33.869-22.865
				c-3.352-8.178-3.943-17.184-3.043-25.896c0.596-5.761,2.972-12.125,6.453-17.585c3.248-5.093,8.522-9.818,13.983-13.337
				c7.026-4.527,14.671-7.477,22.656-9.814c21.929-6.418,45.299-7.203,67.991-6.726c30.837,0.649,61.691,2.908,92.522,4.03
				c28.864,1.051,57.813,2.93,86.695,3.084c18.925,0.102,43.245-0.652,51.317-21.055c6.005-15.18,4.793-33.768,4.255-49.739
				c-0.461-13.702-1.445-27.38-1.839-41.085c-0.172-5.983-0.199-11.974,0.108-17.953c0.285-5.545,0.409-7.841,2.06-13.221
				c0.133-0.433,1.191-2.987,0.272-0.912c0.369-0.834,0.831-1.621,1.329-2.383c0.783-1.2-1.24,1.298,0.319-0.242
				c0.642-0.561,0.456-0.43-0.558,0.393c0.37-0.268,0.78-0.473,1.188-0.676c-2.717,1.35,1.667-0.001-1.389,0.383
				c2.329-0.293,4.68-0.471,7.016-0.702c4.438-0.44,8.88-0.853,13.324-1.229c8.447-0.715,16.925-1.263,25.405-1.203
				c2.861,0.02,6.457,0.166,8.624,0.511c1.319,0.21,2.607,0.546,3.871,0.972c-0.837-0.282-0.615,0.034-1.36-1.207
				c5.379,8.95,19.404,0.802,14.002-8.185c-4.514-7.512-14.93-7.955-22.71-8.255c-11.754-0.454-23.609,0.728-35.299,1.814
				c-8.15,0.757-17.672,0.078-23.922,6.251c-4.343,4.291-6.192,10.708-7.173,16.551c-5.766,34.376,4.668,71.453-0.388,104.766
				c-0.496,3.269-1.236,6.498-2.271,9.639c-0.803,2.438-1.557,3.911-3.716,5.386c-7.038,4.804-17.883,4.881-26.463,5.107
				c-28.354,0.749-57-1.745-85.337-2.762c-31.094-1.117-62.153-2.834-93.237-4.091c-24.069-0.974-48.616-0.098-72.167,5.332
				c-16.825,3.879-33.823,10.923-46.063,23.462c-11.269,11.544-16.326,27.202-16.076,43.135c0.308,19.56,8.937,37.48,25.852,47.788
				c12.9,7.862,29.44,10.475,44.311,8.736c5.983-0.699,12.673-1.671,17.557-5.451c2.403-1.859,3.658-5.415,4.531-8.175
				c2.729-8.617,3.269-18.137,4.036-27.086c2.554-29.753,2.735-59.753,2.911-89.596c0.256-43.202-0.239-86.43-1.394-129.618
				C652.163,105.246,635.945,105.219,636.226,115.683L636.226,115.683z"/>
		</g>
	</g>
	<g>
		<g>
			<path fill="#FFFFFF" d="M658.676,41.507c-0.253,9.37-7.428,16.547-16.798,16.8c-9.377,0.253-16.542-7.805-16.784-16.8
				c-0.252-9.371,7.792-16.54,16.784-16.782C651.245,24.473,658.433,32.518,658.676,41.507c0.282,10.437,16.5,10.464,16.217,0
				C674.398,23.2,660.179,9.002,641.878,8.508c-18.305-0.494-32.528,15.432-33.001,32.999
				c-0.493,18.305,15.428,32.543,33.001,33.017c18.306,0.494,32.541-15.451,33.015-33.017
				C675.175,31.043,658.957,31.071,658.676,41.507z"/>
		</g>
	</g>
	<g>
		<g>
			<path fill="#FFFFFF" d="M839.142,259.019c-0.134-23.834-0.268-47.667-0.401-71.501c-0.069-12.493-0.14-24.987-0.21-37.48
				c-0.018-3.125,0.05-5.638-1.201-8.596c-1.614-3.817-3.646-7.463-5.853-10.965c-8.884-14.105-22.971-26.954-40.719-25.975
				c-9.282,0.512-17.737,5.129-25.85,9.297c-6.449,3.313-12.478,7.195-18.086,11.795c-13.06,10.712-20.679,26.315-26.674,41.74
				c-4.636,11.928-8.246,24.3-11.49,36.67c-2.457,9.37-3.371,19.052-1.653,28.615c4.954,27.578,36.267,32.178,59.311,29.972
				c7.035-0.674,13.496-1.163,19.53-5.205c18.443-12.352,32.766-31.366,44.713-49.707c5.728-8.791-8.319-16.909-14.002-8.185
				c-7.379,11.326-15.549,22.018-24.984,31.712c-5.47,5.619-10.402,10.223-16.418,13.761c-1.699,0.999-1.446,0.728-0.615,0.419
				c-1.635,0.606,2.253-0.093,0.918-0.086c-0.935,0.006-1.892,0.206-2.814,0.328c-3.954,0.524-7.915,0.947-11.897,1.168
				c-2.538,0.141-5.08,0.175-7.62,0.128c-1.349-0.024-2.695-0.095-4.041-0.184c-0.684-0.045-1.366-0.108-2.049-0.172
				c-0.365-0.033-3.316-0.424-1.273-0.131c-2.744-0.395-5.449-1.015-8.1-1.824c-3.354-1.024-3.268-0.978-6.706-3.109
				c-0.572-0.355-1.119-0.747-1.665-1.14c1.521,1.094-0.232-0.245-0.446-0.433c-1.024-0.9-1.938-1.915-2.807-2.964
				c0.976,1.179-1.103-1.873-1.438-2.491c-0.08-0.147-1.051-2.335-0.416-0.772c-0.394-0.97-0.693-1.974-0.981-2.979
				c-0.937-3.267-1.021-5.488-0.928-9.521c0.11-4.83,1.144-9.54,2.364-14.197c5.282-20.143,11.224-41.575,23.261-58.886
				c7.288-10.479,18.206-17.036,30.822-23.114c7.504-3.615,13.824-5.597,21.378-2.896c5.34,1.91,11.398,8.156,14.611,12.498
				c3.16,4.271,5.845,8.938,8.063,13.763c1.352,2.94-0.485-2.776-0.482-2.381c0.006,1.085,0.012,2.169,0.018,3.254
				c0.205,36.592,0.411,73.184,0.616,109.775C822.983,269.474,839.2,269.479,839.142,259.019L839.142,259.019z"/>
		</g>
	</g>
</g>
</svg>
